<?xml version="1.0" encoding="utf-8"?>
<!-- Generator: Adobe Illustrator 15.1.0, SVG Export Plug-In . SVG Version: 6.00 Build 0)  -->
<!DOCTYPE svg PUBLIC "-//W3C//DTD SVG 1.1//EN" "http://www.w3.org/Graphics/SVG/1.1/DTD/svg11.dtd">
<svg version="1.1" id="Layer_1" xmlns="http://www.w3.org/2000/svg" xmlns:xlink="http://www.w3.org/1999/xlink" x="0px" y="0px"
	 width="43.5px" height="43.5px" viewBox="0 0 43.5 43.5" enable-background="new 0 0 43.5 43.5" xml:space="preserve">
<path fill="#F9D453" d="M21.75,28.746c-0.278,0-0.557-0.105-0.769-0.318l-9.643-9.643c-0.425-0.425-0.425-1.113,0-1.538
	c0.424-0.425,1.114-0.425,1.538,0l8.874,8.874l8.874-8.874c0.424-0.425,1.113-0.425,1.537,0c0.425,0.424,0.425,1.113,0,1.538
	l-9.642,9.643C22.307,28.641,22.028,28.746,21.75,28.746z M43.5,21.75C43.5,9.757,33.743,0,21.75,0S0,9.757,0,21.75
	S9.757,43.5,21.75,43.5S43.5,33.743,43.5,21.75z M41.325,21.75c0,10.794-8.782,19.575-19.575,19.575
	c-10.794,0-19.575-8.781-19.575-19.575S10.956,2.175,21.75,2.175C32.543,2.175,41.325,10.956,41.325,21.75z"/>
</svg>
